<?xml version="1.0" encoding="utf-8"?>
<!-- Generator: Adobe Illustrator 23.0.3, SVG Export Plug-In . SVG Version: 6.00 Build 0)  -->
<svg version="1.1" id="Layer_1" xmlns="http://www.w3.org/2000/svg" xmlns:xlink="http://www.w3.org/1999/xlink" x="0px" y="0px"
	 viewBox="0 0 512 512" style="enable-background:new 0 0 512 512;" xml:space="preserve">
<style type="text/css">
	.st0{fill:#F1D9B3;}
	.st1{fill:#735526;}
	.st2{fill:#A47530;}
	.st3{fill:#EEAC41;}
	.st4{fill:#F3B751;}
	.st5{fill:#0D0D0D;}
	.st6{fill:#262626;}
	.st7{fill:#D9D3D0;}
	.st8{fill:#A6978A;}
	.st9{fill:#595857;}
	.st10{fill:#D9D3D0;stroke:#231F20;stroke-width:15;stroke-miterlimit:10;}
	.st11{fill:#595857;stroke:#231F20;stroke-width:6;stroke-miterlimit:10;}
	.st12{fill:#A6978A;stroke:#231F20;stroke-width:6;stroke-miterlimit:10;}
</style>
<circle class="st10" cx="256" cy="256" r="206"/>
<path class="st11" d="M287.74,336.08H219.8c-4.71,0-8.89,3.02-10.37,7.5L201,369.11h110l-13.5-27
	C295.65,338.41,291.87,336.08,287.74,336.08z"/>
<path class="st12" d="M284.09,336.08H222.3c-3.84,0-5.76-4.64-3.04-7.35l9.17-9.17h49.55l9.17,9.17
	C289.85,331.44,287.92,336.08,284.09,336.08z"/>
<path class="st12" d="M264.01,215.42h-21.64v11.49c0,15.5-3.16,30.85-9.27,45.09l0,0c-4.18,9.73-6.33,20.2-6.33,30.79v0
	c0,5.66,4.58,10.24,10.24,10.24h32.37c5.66,0,10.24-4.58,10.24-10.24v-0.26c0-10.42-2.09-20.73-6.13-30.32l-0.49-1.16
	c-5.93-14.06-8.98-29.16-8.98-44.41V215.42z"/>
<polygon class="st11" points="277.88,204.81 267.49,215.21 238.91,215.21 228.51,204.81 238.91,194.4 267.49,194.4 "/>
<path class="st12" d="M279.95,169.65c0,11.18-6.86,20.77-16.63,24.76h-20.26c-9.76-3.98-16.63-13.58-16.63-24.76
	c0-14.77,11.98-26.76,26.76-26.76C267.97,142.89,279.95,154.87,279.95,169.65z"/>
<path class="st11" d="M280.59,320.89H225.8c-2.69,0-4.87-2.18-4.87-4.87l0,0c0-2.69,2.18-4.87,4.87-4.87h54.79
	c2.69,0,4.87,2.18,4.87,4.87l0,0C285.45,318.71,283.28,320.89,280.59,320.89z"/>
</svg>
